# xmcd
#
# Track frame offsets:
#	150
#	12817
#	25974
#	40058
#	52878
#	64764
#	78841
#	91728
#	106054
#	118906
#	132651
#	145650
#	159375
#	172504
#	185608
#	198749
#	211639
#	225027
#	237216
#	250529
#	263850
#	276624
#	289839
#	302349
#	316742
#
# Disc length: 4379 seconds
#
# Revision: 1
# Processed by: cddbd v1.5.2PL0 Copyright (c) Steve Scherf et al.
# Submitted via: audiograbber 1.83.01
#
DISCID=40111919
DTITLE=Various Artist - The History Of Rhythm And Blues 1925-1942 [CD3]
DYEAR=2008
DGENRE=Blues
TTITLE0=Louie Lasky - Teasin' Brown Blues
TTITLE1=Leroy Carr and Scrapper Blackwell - Barrelhouse Woman
TTITLE2=Johnnie Temple - Lead Pencil Blues
TTITLE3=Bumble Bee Slim - Policy Dream Blues
TTITLE4=Bill Gaither - Naptown Stomp
TTITLE5=Walter Davis - Sloppy Drunk Again
TTITLE6=Jazz Gillum - Jockey Blues
TTITLE7=Elder Otis Jones - Holy Mountain
TTITLE8=Golden Gate Jubilee Quartet - Standing By The Bedside Of A Neighbor
TTITLE9=Johnnie Temple - Louise Louise Blues
TTITLE10=Big Bill Broonzy - Barrelhouse When It Rains
TTITLE11=John Lee "Sonny Boy" Williamson - Good Morning Little Schoolgirl
TTITLE12=Robert Johnson - Preachin' Blues
TTITLE13=Jimmie Gordon - Number Runner's Blues
TTITLE14=John Lee "Sonny Boy" Williamson - Tell Me Baby
TTITLE15=Big Bill Broonzy - Rockin' Chair Blues
TTITLE16=Washboard Sam - Diggin' My Potatoes
TTITLE17=Sister Rosetta Tharpe - This Train
TTITLE18=Tampa Red - Don't You Lie To Me
TTITLE19=John Lee "Sonny Boy Williamson - Jivin' The Blues
TTITLE20=Big Bill Broonzy - I Feel So Good
TTITLE21=Big Maceo - Worried Life Blues
TTITLE22=Champion Jack Dupree - Junker Blues
TTITLE23=Doctor Clayton  - Ain't No Business We Can Do
TTITLE24=Arthur "Big Boy" Crudup - Mean Ol' Frisco
EXTD=Disc 3 has been re-mastered by a different engineer to get a better overal
EXTD=l sound from the original version.
EXTT0=
EXTT1=
EXTT2=
EXTT3=
EXTT4=
EXTT5=
EXTT6=
EXTT7=
EXTT8=
EXTT9=
EXTT10=
EXTT11=
EXTT12=
EXTT13=
EXTT14=
EXTT15=
EXTT16=
EXTT17=
EXTT18=
EXTT19=
EXTT20=
EXTT21=
EXTT22=
EXTT23=
EXTT24=
PLAYORDER=
